<?xml version="1.0" encoding="iso-8859-1"?>
<!-- Generator: Adobe Illustrator 19.0.0, SVG Export Plug-In . SVG Version: 6.00 Build 0)  -->
<svg width="16" height="16" version="1.1" id="Capa_1" xmlns="http://www.w3.org/2000/svg" xmlns:xlink="http://www.w3.org/1999/xlink" x="0px" y="0px"
	 viewBox="0 0 512.001 512.001" style="enable-background:new 0 0 512.001 512.001;" xml:space="preserve">
<g>
	<g>
		<path d="M507.607,89.247L422.754,4.394C419.942,1.581,416.126,0,412.148,0c-3.978,0-7.794,1.58-10.606,4.394L38.916,367.018
			c-1.791,1.791-3.1,4.006-3.803,6.439L0.591,492.833c-1.519,5.25-0.062,10.909,3.803,14.773c3.875,3.876,9.538,5.317,14.773,3.803
			l119.376-34.523c2.434-0.704,4.648-2.012,6.439-3.803l362.625-362.623C513.465,104.602,513.465,95.105,507.607,89.247z
			 M126.501,449.14l-89.533,25.893l25.892-89.532l7.877-7.877l63.64,63.64L126.501,449.14z M155.589,420.051l-63.64-63.64
			l254.559-254.558l63.64,63.64L155.589,420.051z M431.361,144.28l-63.64-63.64l44.427-44.427l63.64,63.64L431.361,144.28z" fill="white"/>
	</g>
</g>
<g>
</g>
<g>
</g>
<g>
</g>
<g>
</g>
<g>
</g>
<g>
</g>
<g>
</g>
<g>
</g>
<g>
</g>
<g>
</g>
<g>
</g>
<g>
</g>
<g>
</g>
<g>
</g>
<g>
</g>
</svg>
